<?xml version="1.0" encoding="UTF-8"?>
<svg id="Layer_1" xmlns="http://www.w3.org/2000/svg" version="1.1" viewBox="0 0 799.47 552.33">
  <!-- Generator: Adobe Illustrator 29.5.0, SVG Export Plug-In . SVG Version: 2.1.0 Build 137)  -->
  <defs>
    <style>
      .st0 {
        fill: #003057;
      }
    </style>
  </defs>
  <polygon class="st0" points="698.55 194.09 698.55 252.25 647.28 252.25 647.28 194.09 591.77 194.09 591.77 358.24 647.28 358.24 647.28 297.75 698.55 297.75 698.55 358.24 754.06 358.24 754.06 194.09 698.55 194.09"/>
  <path class="st0" d="M303.24,190.38c-47.52,0-86.05,38.41-86.05,85.8s38.53,85.78,86.05,85.78,86.05-38.41,86.05-85.78c0-47.39-38.52-85.8-86.05-85.8M303.24,309.32c-18.37,0-33.25-14.84-33.25-33.15s14.88-33.15,33.25-33.15,33.25,14.84,33.25,33.15-14.88,33.15-33.25,33.15"/>
  <polygon class="st0" points="154.07 194.09 99.97 253.66 99.97 194.09 45.41 194.09 45.41 358.24 99.97 358.24 99.97 317.67 112.44 303.84 153.6 358.24 217.81 358.24 148.66 266.32 214.51 194.09 154.07 194.09"/>
  <path class="st0" d="M527.95,287.8c-4.72,12.57-16.88,21.52-31.13,21.52-18.37,0-33.25-14.84-33.25-33.15s14.88-33.15,33.25-33.15c14.26,0,26.41,8.95,31.13,21.52l38.6-38.6c-15.63-21.54-41.04-35.56-69.74-35.56-47.52,0-86.05,38.41-86.05,85.8s38.53,85.79,86.05,85.79c28.7,0,54.1-14.02,69.74-35.55l-38.6-38.6Z"/>
</svg>