<svg xmlns="http://www.w3.org/2000/svg" id="Layer_1" version="1.1" viewBox="0 0 799.47 552.33"><defs><style>.st0{fill:#f3f4f3}.st1{fill:#184865}.st2{fill:#05193b}.st3{fill:#032247}.st4{fill:#f7f5f4}.st5{fill:#010725}.st6{fill:#000c30}.st7{fill:#f43312}.st8{fill:#003057}.st9{fill:#f44c20}.st10{fill:#0a3858}.st11{fill:#293d58}.st12{fill:#f32b0c}.st13{fill:#f6f5f4}.st14{fill:#0a0a0a}.st15{fill:#fcfcfc}.st16{fill:#f7f7f5}.st17{fill:#69d1e2;stroke:#000;stroke-miterlimit:10}.st18{fill:#f7f6f5}</style></defs><g><polygon points="664.73 165.63 664.73 196.03 637.93 196.03 637.93 165.63 608.91 165.63 608.91 251.44 637.93 251.44 637.93 219.82 664.73 219.82 664.73 251.44 693.75 251.44 693.75 165.63 664.73 165.63" class="st8"/><path d="M458.06,163.68c-24.84,0-44.99,20.08-44.99,44.86s20.14,44.85,44.99,44.85,44.99-20.08,44.99-44.85c0-24.77-20.14-44.86-44.99-44.86M458.06,225.87c-9.6,0-17.38-7.76-17.38-17.33s7.78-17.33,17.38-17.33,17.38,7.76,17.38,17.33-7.78,17.33-17.38,17.33" class="st8"/><polygon points="380.07 165.63 351.79 196.77 351.79 165.63 323.26 165.63 323.26 251.44 351.79 251.44 351.79 230.23 358.31 223 379.83 251.44 413.4 251.44 377.25 203.39 411.67 165.63 380.07 165.63" class="st8"/><path d="M575.54,214.62c-2.47,6.57-8.83,11.25-16.28,11.25-9.6,0-17.38-7.76-17.38-17.33s7.78-17.33,17.38-17.33c7.45,0,13.81,4.68,16.28,11.25l20.18-20.18c-8.17-11.26-21.45-18.59-36.46-18.59-24.84,0-44.99,20.08-44.99,44.86s20.14,44.85,44.99,44.85c15.01,0,28.29-7.33,36.46-18.59l-20.18-20.18Z" class="st8"/></g><path d="M16.78,139.26c-.03,81.83-.9,163.81,0,245.63l-1.87-3.23v-241.02s1.87-1.38,1.87-1.38Z" class="st15"/><path d="M312.84,446.53c-6.13,4.88-12.17.15-16.81-3.74,5.45,3.53,10.35,4.24,16.81,3.74Z" class="st12"/><path d="M19.58,397.03c-.05-.08-1.25.43-1.87-.65-.17-.3-1.67-5.26-1.72-5.71-.14-1.42.79-1.93.79-2.04l2.8,8.41Z" class="st15"/><path d="M19.58,130.85c-.95,2.18-1.68,4.47-2.8,6.54,0-.11-.81-.59-.81-1.36.02-1.58.97-3.39.88-5.12l2.73-.06Z" class="st15"/><path d="M307.24,410.1c-1.73-1.26-4.99-2.64-4.67-4.67,1.49,1.45,3.75,2.45,4.67,4.67Z" class="st12"/><path d="M314.71,446.53c-.27.07-.61-.04-.93,0l.47-.92.47.92Z" class="st12"/><path d="M274.55,253.2c-1.4-.75-2.6-1.7-3.74-2.8,2.27-.05,2.66,1.48,3.74,2.8Z" class="st2"/><path d="M166.21,261.6c24.01-12.21,50.23-15.46,76.13-4.69l14.46,7.49c7.79,5.7,12.43,10.67,17.75,18.68-1.6.19.41,2.89.76,3.44,4.94,7.69,7.15,14.26,10.45,22.71.04.31-.04.63,0,.93,2.94,25.06-.3,40.25-11.68,61.61-1.11,2.08-4.52,1.14-2.98,4.5.38.83,3.31,1.93,3.46,2.07,6.26,6.21,12.33,11.82,18.68,17.75l-.92.46c2.42,1.99,4.2,5.54,7.46,6.08.99.94,1.85,1.88,2.8,2.8-.32,2.03,2.94,3.41,4.67,4.67,9.84,7.18,20.07,16.08,14.4,29.81-1.02,2.48-4.29,5.92-6.93,6.61l-.47-.92-.47.92c-.3.04-.63-.02-.93,0-6.46.51-11.36-.2-16.81-3.74-2.84-2.38-4.88-5-7.47-7.47l-2.8-2.8c-.64-.63-1.24-1.24-1.87-1.87l-.93-.93c-1.87-1.89-3.74-3.66-5.6-5.6l-.93-.93c-.9-.94-1.87-1.82-2.8-2.8-2.39-2.52-4.81-5.26-6.86-8.08l-6.21-4.06c-.95-.94-1.86-1.84-2.8-2.8,1.86-.39-.97-2.37-1.4-2.8-2.38-2.38-3.71-4.51-7-5.6-.39-.13-1.29,0-1.87,0-2.47,0-2.51.7-4.67,1.87-27.7,8.04-44.45,10.74-71.67-2.54-.79-.38-3.89-4.27-5.84-2.13-8.19-5.47-12.76-9.88-18.68-17.75l-8.84-17.78c-2.77-5.89-3.99-11.89-5.15-18.25-.31-1.74,1.07-3.74-1.89-3.2-.35-4.75-.26-11.08,0-15.88,2.95.52,1.67-1.49,1.84-3.26,1-10.54,5.18-24.32,11.52-32.47.54-.69,2.54-3.1.65-3.5,1.29-1.79,2.34-3.01,3.74-4.67l9.34-9.34c.31-.32.61-.63.93-.93l1.87-.93c.68-.6,1.2-2.27,2.32-2.8l3.28-1.87ZM248.4,300.83c1.47-2.04,4.93-5.54,4.72-7.89-.11-1.22-7.31-8.86-8.48-9.4-5.19-2.4-9.55,7.14-15.16,6.89l-9.58-4.53-2.46-14.83-15.78.3c-3.24,2.56-.73,14.38-2.39,15.55l-11.89,4.37c-3.66-1.36-8.49-8.59-12.26-8.26-1.72.15-9.63,8.13-9.89,9.91-.43,2.95,3.01,6.22,4.7,8.82-2.32,2.46,1.9.9.91,5.06-.69,2.91-4.09,6.04-3.8,9.79-3.84.36-9.66.03-13.28,1.03-1.11.3-.52,1.75-.64,1.86s-1.26-.27-1.65.18c-.52.6-.78,13.8.71,15.7,1.12,6.21,11.99.71,15.02,5.3.37.55,3.74,8.63,3.7,9.12-.3,3.28-9.4,11.12-7.5,13.6.55.17,1.57-.17,1.86,0,.38.23.62.71.93.93-.03,1.99,2.8,3.98,4.67,4.67.9.91,1.88,1.95,2.8,2.8.63.59.77,2.25,2.33,1.88l.47-1.88c3.27-.42,7.04-6.27,9.84-6.57,2.36-.25,9.3,4.25,12.97,3.66,1.04,4.98.1,8.9,1.47,14.12.39,1.49.34,3.44,3.29,3.74,1.37.14,11.72-1.23,13.15-1.82,4.84-2.02,2.58-10.52,3.3-14.86,1.66-1.15,4.12-.6,5.71-1.13.95-.32.68-2.02,3.24-2.55,3.89-.81,2.54.9,3.75,1.65,3.26,2.01,8.74,7.09,11.46,4.7s6.58-5.19,7.47-8.41c.25-.35.77-.64.93-.93,2.92-5.46-4.86-8.24-6.4-13.37l4.19-10.07c6.23-3.16,15.18,1.14,16.23-7.83.2-1.69.18-11.97-.24-12.45-.39-.44-1.52-.05-1.65-.18s.47-1.56-.64-1.86c-2.79-.77-12.01-.44-13.41-1.36l-4.49-9.59,1.73-5.87Z" class="st9"/><path d="M165.28,394.23c1.95-2.13,5.06,1.75,5.84,2.13,27.22,13.28,43.97,10.58,71.67,2.54-24.62,13.32-54.35,10.81-77.52-4.67Z" class="st7"/><path d="M256.81,264.41l-14.46-7.49c-25.9-10.77-52.12-7.52-76.13,4.69,27.75-18.62,63.93-16.7,90.59,2.8Z" class="st12"/><path d="M274.55,378.35c-.14-.14-3.08-1.24-3.46-2.07-1.53-3.35,1.87-2.41,2.98-4.5,11.38-21.36,14.62-36.55,11.68-61.61,1.73.95,1.52,2.62,1.85,4.22,3.02,14.57,0,32.69-6.08,46.19-1.96,4.34-7.18,10.58-8.43,14.09-.64,1.8.66,2.43,1.45,3.69Z" class="st7"/><path d="M130.72,337.25c2.96-.54,1.58,1.46,1.89,3.2,1.15,6.36,2.38,12.36,5.15,18.25l8.84,17.78c-8.72-11.59-14.8-24.5-15.88-39.23Z" class="st12"/><path d="M144.73,282.15c1.89.4-.11,2.81-.65,3.5-6.34,8.14-10.52,21.92-11.52,32.47-.17,1.77,1.12,3.77-1.84,3.26.79-14.56,5.51-27.45,14.01-39.23Z" class="st12"/><path d="M285.76,309.24c-3.3-8.45-5.5-15.01-10.45-22.71-.35-.55-2.36-3.25-.76-3.44,5.67,8.54,9.8,15.94,11.21,26.15Z" class="st12"/><path d="M260.54,408.23l6.21,4.06c2.06,2.81,4.47,5.56,6.86,8.08-4.57-3.79-8.87-7.96-13.08-12.14Z" class="st12"/><path d="M299.77,402.63c-3.26-.53-5.04-4.09-7.46-6.08l.92-.46c2.13,1.99,4.35,4.46,6.54,6.54Z" class="st12"/><path d="M247.47,397.03c-1.41,1.67-3.05,1.4-4.67,1.87,2.16-1.17,2.2-1.88,4.67-1.87Z" class="st12"/><path d="M257.74,405.43c-2.76-2.81-5.04-6.15-8.41-8.41,3.29,1.1,4.63,3.22,7,5.6.43.43,3.27,2.41,1.4,2.8Z" class="st12"/><path d="M160.61,266.27l-1.87.93c.86-.8,1.74-.82,1.87-.93Z" class="st12"/><path d="M157.81,268.14l-9.34,9.34c2.85-3.37,5.75-6.72,9.34-9.34Z" class="st12"/><path d="M277.35,424.11c-.3-.32-.63-.62-.93-.93l.93.93Z" class="st12"/><path d="M283.89,430.65c-.31-.31-.62-.62-.93-.93l.93.93Z" class="st12"/><path d="M288.56,435.32c-.99-.95-1.85-1.86-2.8-2.8l2.8,2.8Z" class="st12"/><path d="M176.49,371.81l-.47,1.88c-1.56.36-1.7-1.3-2.33-1.88h2.8Z" class="st12"/><path d="M193.3,313.91c4.63-4.74,13.54-6.42,20-5.52,16.99,2.36,20.71,28.74,7.27,36.26-5.96,3.33-16.5,3.57-22.51.46-6.12-3.18-7.24-7.42-8.99-13.46-.2-.68-1.35-.84-1.38-.92-1.53-5.81,1.55-12.65,5.6-16.81Z" class="st9"/><path d="M169.95,301.76c-1.69-2.6-5.13-5.87-4.7-8.82.26-1.78,8.17-9.76,9.89-9.91,3.77-.33,8.6,6.9,12.26,8.26l11.89-4.37c1.65-1.17-.85-12.99,2.39-15.55l15.78-.3,2.46,14.83,9.58,4.53c5.61.25,9.97-9.29,15.16-6.89,1.17.54,8.37,8.18,8.48,9.4.21,2.35-3.25,5.86-4.72,7.89-.88,1.22-3.82,3.66-3.62,4.96l4.67,11.72,15.76,1.99c1.21,1.21,1.39,13.09.47,14.95-1.52,3.08-11.57,2.02-14.77,3.68l-5.87,11.22c-.37,1.58,9.37,10.47,8.02,14.05-.16.3-.68.58-.93.93-2.25,3.2-5.27,5.22-8.41,7.47-7.21-1.45-7.51-3.89-13.38-7.32-3.08,2.6-6.89,3.36-10.85,3.63l-2.05,15.7-16.68-.8c-1.37-5.21-.44-9.13-1.47-14.12-3.67.59-10.6-3.91-12.97-3.66-2.8.29-6.57,6.15-9.84,6.57h-2.8c-.92-.85-1.9-1.9-2.8-2.8-1.72-1.73-2.35-2.99-4.67-4.67-.31-.23-.56-.71-.93-.93-1.86-4.97,7.13-9.53,7.11-13.54l-4.39-12.52c-5.02-.43-11.55.07-15.79-2.89-.23-2.47-.28-13.73.93-14.94l14.75-2.06,4.69-11.65c.05-1.85-1.83-2.82-2.62-4.04ZM187.69,330.72c-.17,4.73,3.59,10.03,6.98,13.1,18.92,17.11,46.87-7.75,31.3-29.18-7.27-10.01-25.91-11.69-32.68-.73-4.06,4.16-7.13,11-5.6,16.81Z" class="st4"/><path d="M152.2,334.45c4.24,2.96,10.77,2.46,15.79,2.89l4.39,12.52c.02,4.01-8.97,8.57-7.11,13.54-.29-.18-1.31.16-1.86,0-1.9-2.48,7.2-10.32,7.5-13.6.04-.49-3.33-8.56-3.7-9.12-3.02-4.58-13.9.92-15.02-5.3-.05-.3.03-.63,0-.93Z" class="st7"/><path d="M200.77,383.02l16.68.8,2.05-15.7c3.96-.27,7.77-1.03,10.85-3.63,5.87,3.43,6.18,5.87,13.38,7.32.2.04.57.75.93.93-2.72,2.39-8.19-2.69-11.46-4.7-1.21-.74.14-2.45-3.75-1.65-2.56.53-2.29,2.24-3.24,2.55-1.59.53-4.04-.02-5.71,1.13-.72,4.35,1.54,12.85-3.3,14.86-1.44.6-11.79,1.96-13.15,1.82-2.95-.3-2.89-2.25-3.29-3.74Z" class="st7"/><path d="M169.95,301.76c.79,1.22,2.67,2.19,2.62,4.04l-4.69,11.65-14.75,2.06c-1.21,1.22-1.16,12.48-.93,14.94.03.31-.05.64,0,.93-1.49-1.9-1.23-15.11-.71-15.7.39-.44,1.52-.05,1.65-.18s-.47-1.56.64-1.86c3.62-.99,9.44-.67,13.28-1.03-.29-3.76,3.11-6.88,3.8-9.79.99-4.16-3.24-2.6-.91-5.06Z" class="st12"/><path d="M248.4,300.83l-1.73,5.87,4.49,9.59c1.4.93,10.62.59,13.41,1.36,1.11.3.52,1.75.64,1.86s1.26-.27,1.65.18c.42.48.44,10.76.24,12.45-1.05,8.97-10.01,4.67-16.23,7.83l-4.19,10.07c1.53,5.13,9.31,7.91,6.4,13.37,1.35-3.58-8.39-12.47-8.02-14.05l5.87-11.22c3.19-1.66,13.25-.6,14.77-3.68.92-1.86.74-13.74-.47-14.95l-15.76-1.99-4.67-11.72c-.2-1.3,2.74-3.75,3.62-4.96Z" class="st12"/><path d="M170.88,369.01c-1.87-.69-4.7-2.68-4.67-4.67,2.32,1.68,2.95,2.94,4.67,4.67Z" class="st7"/><path d="M244.66,372.74c-.36-.18-.73-.89-.93-.93,3.13-2.25,6.15-4.27,8.41-7.47-.89,3.21-4.82,6.08-7.47,8.41Z" class="st12"/><path d="M193.3,313.91c6.77-10.95,25.41-9.28,32.68.73,15.56,21.43-12.38,46.29-31.3,29.18-3.39-3.06-7.15-8.37-6.98-13.1.02.08,1.18.24,1.38.92,1.75,6.04,2.87,10.29,8.99,13.46,6,3.11,16.55,2.88,22.51-.46,13.44-7.52,9.72-33.9-7.27-36.26-6.46-.9-15.37.78-20,5.52Z" class="st7"/><path d="M213.84,117.78c8.99,6.88,19.85,19.14,28.04,27.53,9.02,9.23,22.08,21.72,29.86,31.31l2.75,7.06c3.16,21.04,2.16,43.85,1.94,65.34-.02,1.58.6,4.15-.95,5.12-.22-.32-.66-.59-.93-.93-1.08-1.32-1.46-2.85-3.74-2.8-.31-.31-.61-.64-.93-.93-46.22-41.57-124.65-19.47-150.54,34.85-15.38,32.27-12.09,78.46,12.32,104.31.3.32.64.6.93.93,2.23,5.64,8.49,10.99,13.06,15.13.54.49,2.41,2.59,2.81.75,3.09,2.42,8.08,6.49,11.21,8.41,1.67,2.54.91,1.76-1.39,1.87-34.74,1.68-71.47-.39-106.5-.02-1.58.02-4.15-.6-5.12.95-13.24-1.23-20.4-9.24-27.08-19.61l-2.8-8.41c-.02-.93.01-1.87,0-2.8v-246.56c0-.62,0-1.25,0-1.87,1.12-2.07,1.86-4.36,2.8-6.54,3.07-7.08,5.71-11.62,13.08-14.94,3.47-1.57,9.69-3.44,13.51-3.77,53.15,1.25,107.03-2.38,159.77,1.86l7.9,3.77ZM191.43,130.85c-.3-.02-.75-.07-.93,0-.55.22-2.02-.56-1.89.57l.02,56.87c1.41,8.89,5.82,12.02,14.44,12.65,17.96,1.3,37.49-1.05,55.61-.05.38-.23-.92-1.5-.94-1.86,0-.1.75-.54.93-.93.12-.25,1.5-.18.5-.93l-66.38-66.43c-.83-1.11-1.3.12-1.36.11ZM66.28,157.94l.93.93c-.4.09-4.66,3.11-5.13,3.74-3.54,4.83-1.68,10.3,2.32,14l-.92.84,6.03,1.99,86.84-.07c5.39-2.33,10.88-5.49,9.67-12.33-.28-1.59-3.6-6.9-4.97-7.23-.54-.13-.42.94-.46.92-1.05-.48-2.07-.91-2.8-1.87v-.93h-91.53ZM68.15,202.77c-1.68.38-3.6-.05-4.67,1.87-.42.26-1.29,2.12-1.87,2.8-.44.52-1.83.78-2.32,1.84-1.37,3.01-.16,6.89,1.44,9.58.62,1.05,1.72.62,1.81.72.11.11-.28,1.25.62,1.91.18.13,3.65,1.7,4.05,1.83.37.12,1.2,1.36,2.24.99,26.07-2.76,60.7,3.92,85.55-.99,5-.99,7.92-1.82,10.25-6.98,0-.78-.9-1.28-.91-1.43-.36-5.66-.73-10.06-7.47-11.21.52-2.82-1.43-1.81-3.23-1.87-19.83-.66-68.52-2.89-85.5.93ZM61.61,251.33c-3.89,7.52-1.34,11.2,5.6,14.94v.93c.97,1.55,3.54.93,5.12.95,14.56.15,29.15-.15,43.71,0,5-5.73,12.02-8.3,6.65-16.74-2.16-3.4-5.24-5.23-9.25-5.69-8.6-.97-36.57-1.21-44.77.06-4.11.64-5.41,2.34-7.06,5.54Z" class="st10"/><path d="M155.01,203.7c-28.07,1.8-59.15-2.42-86.86,0v-.93l86.86.93Z" class="st10"/><path d="M213.84,117.78l-7.9-3.77c-52.75-4.24-106.63-.61-159.77-1.86-3.82.33-10.04,2.2-13.51,3.77,3.95-4.21,12.56-5.25,18.17-5.64,46.61-3.24,96.9,2.53,143.9,0,7.73.61,13.05,2.87,19.11,7.51Z" class="st5"/><path d="M16.78,385.82c0-.31,0-.62,0-.93-.9-81.82-.03-163.8,0-245.63v246.56Z" class="st6"/><path d="M159.68,413.84c.79.49,6.28,1.23,5.13,2.81H46.67c.97-1.55,3.54-.94,5.12-.95,35.03-.37,71.76,1.7,106.5.02,2.29-.11,3.05.68,1.39-1.87Z" class="st6"/><path d="M269.88,249.46c-9.74-6.59-20.17-12.4-31.55-15.61-87.54-24.7-157.28,63.88-113.69,143.58,2.11,3.85,5.04,7.31,7.02,11.19-24.4-25.85-27.7-72.04-12.32-104.31,25.89-54.32,104.33-76.41,150.54-34.85Z" class="st2"/><path d="M271.75,176.62c3.21,3.95,5.2,9.37,5.64,14.44,1.8,20.87-1.42,44.26-.03,65.41-1.07,1.49-1.42-1.68-1.87-2.33,1.55-.97.93-3.54.95-5.12.23-21.49,1.22-44.3-1.94-65.34l-2.75-7.06Z" class="st6"/><path d="M132.59,389.56c5.3,6.09,9.44,10.84,15.88,15.88-.4,1.84-2.27-.26-2.81-.75-4.58-4.14-10.84-9.49-13.06-15.13Z" class="st2"/><path d="M191.43,130.85l67.24,67.24c-.19.4-.94.83-.93.93h-3.74c-3.41,0-6.86,0-10.27,0-13.42,0-31.59,1.45-44.36,0-5.7-.65-8.39-3.03-8.92-8.83-1.72-18.83,1.37-40.25.04-59.35.18-.07.64-.02.93,0Z" class="st16"/><path d="M157.81,158.87c.73.95,1.75,1.38,2.8,1.87,6.51,4.5,4.9,15.47-3.32,16.77-29.22-.61-58.59.96-87.79.08-1.78-.05-3.54.09-5.09-.97-4.01-3.7-5.86-9.17-2.32-14,.47-.64,4.73-3.65,5.13-3.74h90.59Z" class="st13"/><path d="M68.15,203.7c27.71-2.42,58.79,1.8,86.86,0,.6.07,1.29-.1,1.87,0,6.74,1.15,7.12,5.54,7.47,11.21-1.42,4.26-3.26,6.04-7.92,6.56-27.95-2.01-59.4,2.58-86.93.02-1.4-.13-6.2-1.23-6.96-1.92-2.28-2.07-2.31-9.25-.93-12.14.57-.68,1.45-2.54,1.87-2.8.83-.52,3.51-.83,4.67-.93Z" class="st18"/><path d="M114.85,266.27h-47.63c-6.95-3.74-9.5-7.42-5.6-14.94,1.46-2.34,4.32-3.46,6.98-3.76,14.74-1.67,33.08.96,48.18.43,5.03.85,6.36,7.81,5.51,12.18s-7.51,4.91-7.44,6.09Z" class="st0"/><path d="M62.54,219.58c.75.68,5.56,1.79,6.96,1.92,27.52,2.56,58.98-2.03,86.93-.02,4.66-.52,6.5-2.31,7.92-6.56,0,.15.91.65.91,1.43-2.33,5.16-5.25,5.99-10.25,6.98h-87.79c-.41-.13-3.87-1.7-4.05-1.83-.9-.66-.51-1.8-.62-1.91-.1-.1-1.19.33-1.81-.72-1.59-2.69-2.8-6.56-1.44-9.58.48-1.06,1.88-1.32,2.32-1.84-1.37,2.89-1.35,10.07.93,12.14Z" class="st11"/><path d="M160.61,160.74s-.08-1.05.46-.92c1.37.32,4.69,5.64,4.97,7.23,1.2,6.84-4.28,10-9.67,12.33l-86.84.07-6.03-1.99.92-.84c1.56,1.06,3.31.92,5.09.97,29.2.88,58.57-.7,87.79-.08,8.21-1.3,9.83-12.27,3.32-16.77Z" class="st3"/><path d="M190.5,130.85c1.33,19.1-1.76,40.52-.04,59.35.53,5.8,3.22,8.18,8.92,8.83,12.77,1.45,30.94,0,44.36,0,2.37,1.59,8.09,1.55,10.27,0h3.74c.01.36,1.31,1.63.94,1.86-18.12-1-37.66,1.35-55.61.05-8.62-.63-13.03-3.76-14.44-12.65l-.02-56.87c-.13-1.13,1.34-.35,1.89-.57Z" class="st3"/><path d="M61.61,251.33c1.66-3.21,2.95-4.91,7.06-5.54,8.2-1.27,36.17-1.03,44.77-.06,4.01.46,7.09,2.29,9.25,5.69,5.37,8.44-1.65,11-6.65,16.74-14.56-.14-29.14.16-43.71,0-1.58-.02-4.15.6-5.12-.95h48.1c1.12,0-.46-.82-.47-.93-.07-1.18,6.56-1.55,7.44-6.09s-.49-11.33-5.51-12.18c-15.1.53-33.44-2.1-48.18-.43-2.67.3-5.53,1.42-6.98,3.76Z" class="st3"/><path d="M66.28,157.94h91.53-91.53Z" class="st1"/><polygon points="157.81 157.94 157.81 158.87 67.21 158.87 66.28 157.94 157.81 157.94" class="st5"/><path d="M68.15,202.77c16.98-3.83,65.67-1.6,85.5-.93,1.8.06,3.75-.95,3.23,1.87-.58-.1-1.26.07-1.87,0l-86.86-.93Z" class="st2"/><path d="M68.15,202.77v.93c-1.16.1-3.84.41-4.67.93,1.07-1.92,2.99-1.49,4.67-1.87Z" class="st2"/><path d="M155.01,223.31c-24.85,4.91-59.48-1.78-85.55.99-1.04.37-1.87-.87-2.24-.99h87.79Z" class="st1"/><path d="M114.85,266.27c0,.11,1.59.94.47.94h-48.1v-.94h47.63Z" class="st5"/><path d="M191.43,130.85c.07,0,.53-1.22,1.36-.11l66.38,66.43c1,.75-.38.67-.5.93l-67.24-67.24Z" class="st2"/><path d="M254,199.03c-2.18,1.55-7.9,1.59-10.27,0,3.41,0,6.86,0,10.27,0Z" class="st10"/><path d="M755.53,411.97c-3.68.37-3.03.3-6.54,0,1.18-1.55,5.36-1.55,6.54,0Z" class="st14"/><g><path d="M411.48,339.92h-21.42l-5.57-18.03h-27.35l-5.69,18.03h-20.93l28.07-79.86h24.93l27.95,79.86ZM361.03,307.73h19.6l-9.8-32.31-9.8,32.31Z" class="st17"/><path d="M463.63,299.14v16.82h-44.29v-16.82h44.29Z" class="st17"/><path d="M516.15,260.06c12.5,0,22.08,3.47,28.74,10.41,6.66,6.94,9.98,16.78,9.98,29.52s-3.33,22.59-9.98,29.52c-6.65,6.94-16.23,10.41-28.74,10.41h-33.88v-79.86h33.88ZM514.09,324.19c6.78,0,11.72-2.04,14.82-6.11,3.1-4.07,4.66-10.1,4.66-18.09s-1.55-14.02-4.66-18.09c-3.11-4.07-8.05-6.11-14.82-6.11h-11.01v48.4h11.01Z" class="st17"/><path d="M596.49,278.21c6.37,0,11.96,1.23,16.76,3.69,4.8,2.46,8.55,6.05,11.25,10.77,2.7,4.72,4.05,10.39,4.05,17s-1.35,12.28-4.05,17c-2.7,4.72-6.45,8.31-11.25,10.77-4.8,2.46-10.39,3.69-16.76,3.69s-11.74-1.23-16.58-3.69c-4.84-2.46-8.61-6.05-11.31-10.77-2.7-4.72-4.05-10.39-4.05-17s1.35-12.28,4.05-17c2.7-4.72,6.47-8.31,11.31-10.77,4.84-2.46,10.37-3.69,16.58-3.69ZM596.49,292.85c-2.34,0-4.36.57-6.05,1.69-1.69,1.13-2.99,2.95-3.87,5.45-.89,2.5-1.33,5.73-1.33,9.68s.44,7.16,1.33,9.62c.89,2.46,2.18,4.28,3.87,5.45,1.69,1.17,3.71,1.75,6.05,1.75s4.48-.58,6.17-1.75c1.69-1.17,2.98-2.98,3.87-5.45.89-2.46,1.33-5.67,1.33-9.62s-.44-7.18-1.33-9.68c-.89-2.5-2.18-4.31-3.87-5.45-1.69-1.13-3.75-1.69-6.17-1.69Z" class="st17"/><path d="M668.85,278.21c6.13,0,11.23.87,15.31,2.6,4.07,1.74,7.26,4.03,9.56,6.9,2.3,2.86,3.73,5.95,4.29,9.26l-19,6.29c-.57-3.47-1.59-6.07-3.08-7.8-1.49-1.73-3.65-2.6-6.47-2.6-2.58,0-4.74.59-6.47,1.75-1.74,1.17-3.05,3.03-3.93,5.57-.89,2.54-1.33,5.79-1.33,9.74s.48,7.16,1.45,9.62c.97,2.46,2.34,4.24,4.11,5.32,1.77,1.09,3.87,1.63,6.29,1.63,2.02,0,3.69-.38,5.02-1.15,1.33-.77,2.44-1.88,3.33-3.33.89-1.45,1.45-3.23,1.69-5.32l18.51,5.93c-.57,3.55-2.08,6.71-4.54,9.5-2.46,2.78-5.71,4.98-9.74,6.59-4.03,1.61-8.75,2.42-14.16,2.42-6.62,0-12.38-1.23-17.3-3.69-4.92-2.46-8.71-6.05-11.37-10.77-2.66-4.72-3.99-10.39-3.99-17s1.33-12.28,3.99-17c2.66-4.72,6.39-8.31,11.19-10.77,4.8-2.46,10.34-3.69,16.64-3.69Z" class="st17"/></g></svg>